<svg id="Academy" xmlns="http://www.w3.org/2000/svg" viewBox="0 0 1134.89 287.28"><defs><style>.cls-1{fill:#047364;}</style></defs><title>AW_logo_Academy_main_green_rgb</title><path class="cls-1" d="M1065.52,119.73l-15.58,51.7-16.5-51.7h-15.58l23.86,71.75c-1,6.12-5.35,10.38-10.59,10.38-6.39,0-8.23-2.7-10.17-4.66l-7.26,11.09c.66.78,6.15,8.44,18.2,8.44,16.41,0,22-13.08,27.12-28.88l22.24-68.12Z"/><path class="cls-1" d="M575.77,92.59H560.7L524.22,192.67h14.83l9.4-26.16h39L597,192.67h15.13Zm-7.7,20.68,14.32,39H553.77Z"/><path class="cls-1" d="M649.34,118c-21.43,0-34.74,14.78-34.74,38.57s12.76,37.95,34.13,37.95c22,0,28.27-16.45,29.22-18.33l-12.78-6.48a17,17,0,0,1-15.52,9.8c-12.35,0-19.43-8.48-19.43-23.25s6.9-22.94,19.43-22.94c12.7,0,15.68,9.67,17.22,12.37l12.25-8.22C677.11,133.33,671.23,118,649.34,118Z"/><path class="cls-1" d="M744.85,172.62V144.77c0-17.37-9.41-26.93-26.49-26.93-22.48,0-28.24,17-29.82,20.19l12.66,6c1.65-3.17,4.41-10.86,16.25-10.86,7.52,0,12.38,3.18,12.38,8.1,0,3.19-5.9,4.29-12.73,5.57-12.64,2.36-30,5.59-30,24.73,0,11.43,7.52,23,24.33,23,8.37,0,15.44-2.82,21-8.37,3.25,8.37,13.29,8.42,13.29,8.42l7.91-12.31C752.42,181.86,744.85,181.5,744.85,172.62Zm-23.39-12.86c3.81-.75,5.74-1.22,6.89-1.51a9.65,9.65,0,0,1,1.48-.3v10.69c0,5.18-8.4,10.86-16.05,10.86-6.9,0-11-3.6-11-9.63C702.77,164.41,708.79,162.26,721.46,159.76Z"/><path class="cls-1" d="M807.85,92.62v32.81a28.6,28.6,0,0,0-19.42-7.59c-19.1,0-32.44,15.73-32.44,38.25,0,21.55,14,38.42,32,38.42,7,0,14.13-3,19.88-8.35v6.51h15v-100Zm0,60.11v6.58c-.14,12.35-7.22,20.34-18,20.34s-18.2-9.53-18.2-23.71c0-13.68,7.42-23.24,18-23.24C798.45,132.7,807.85,138,807.85,152.73Z"/><path class="cls-1" d="M869.36,117.84c-20.87,0-34.89,15.31-34.89,38.1,0,23.07,14.45,38.57,36,38.57,17.77,0,27.77-10.72,28.59-12.25l-8.9-10.81s-8.51,8.05-19.23,8.05c-11.32,0-19.48-7.07-20.34-17.58h49.09c.46-1.13.94-6.87.94-9.5C900.58,131.74,888,117.84,869.36,117.84Zm-.62,15.31c9.7,0,15.76,5.5,15.91,14.36H851C851.64,141.35,858,133.15,868.74,133.15Z"/><path class="cls-1" d="M985,117.84a26.17,26.17,0,0,0-21.1,10.64,23.58,23.58,0,0,0-20-10.64c-7.47,0-14.29,3-18.34,7.87l-1.26-6H911v73h15V149.36c0-11.06,4.27-16.21,13.45-16.21,9.39,0,13.76,5.06,13.76,15.91v43.61h15V149.36c0-10,5.28-16.21,13.76-16.21,9.41,0,13.61,4.91,13.61,15.91v43.61h15V147.83C1010.57,128.77,1001.26,117.84,985,117.84Z"/><path class="cls-1" d="M137.43,166.23H80.9L109.17,82l28.26,84.24ZM121.38,45.6,191.2,253.65h12.5L127.63,27h-12.5L64.38,178.21h77.08L145,188.79H60.82L39.06,253.65h12.5L69.3,200.78H149l17.74,52.87h12.5L115.42,63.37l6-17.77Z"/><polygon class="cls-1" points="439.33 26.98 363.26 253.66 375.76 253.66 451.83 26.98 439.33 26.98 439.33 26.98"/><polygon class="cls-1" points="463.76 26.98 387.69 253.66 400.19 253.66 476.26 26.98 463.76 26.98 463.76 26.98"/><polygon class="cls-1" points="414.91 26.98 369.52 162.23 345.84 91.57 333.34 91.57 363.27 180.85 357.3 198.64 321.42 91.57 308.92 91.57 351.05 217.27 345.09 235.02 296.99 91.57 284.49 91.57 248.5 198.68 190.88 26.98 178.38 26.98 242.25 217.29 236.28 235.04 166.46 26.98 153.96 26.98 230.03 253.66 230.03 253.66 242.53 253.66 290.74 110.19 296.66 127.87 254.45 253.66 266.95 253.66 302.91 146.5 338.84 253.66 351.34 253.66 351.34 253.66 427.41 26.98 414.91 26.98"/></svg>